<?xml version="1.0" encoding="utf-8"?>
<!-- Generator: Adobe Illustrator 22.1.0, SVG Export Plug-In . SVG Version: 6.00 Build 0)  -->
<svg version="1.1" id="Layer_1" xmlns="http://www.w3.org/2000/svg" xmlns:xlink="http://www.w3.org/1999/xlink" x="0px" y="0px"
	 viewBox="0 0 125.9 44.4" style="enable-background:new 0 0 125.9 44.4;" xml:space="preserve">
<style type="text/css">
	.st0{fill:#FFFFFF;}
</style>
<g>
	<g>
		<g>
			<path class="st0" d="M23.1,13.1L23.1,13.1C23.1,5.8,28.9,0,36.6,0s13.5,5.8,13.5,13V13c0,7.2-5.8,13-13.5,13S23.1,20.3,23.1,13.1
				z M43,13.1L43,13.1c0-3.7-2.6-6.8-6.4-6.8c-3.8,0-6.4,3.1-6.4,6.7V13c0,3.6,2.6,6.8,6.4,6.8C40.4,19.8,43,16.7,43,13.1z"/>
			<path class="st0" d="M52.9,13.1L52.9,13.1C52.9,5.8,58.7,0,66.4,0s13.5,5.8,13.5,13V13c0,7.2-5.8,13-13.5,13S52.9,20.3,52.9,13.1
				z M72.7,13.1L72.7,13.1c0-3.7-2.6-6.8-6.4-6.8C62.5,6.3,60,9.3,60,13V13c0,3.6,2.6,6.8,6.4,6.8C70.2,19.8,72.7,16.7,72.7,13.1z"
				/>
			<path class="st0" d="M83.5,0.5h6.9v19h12.1v6.1H83.5V0.5z"/>
			<path class="st0" d="M105.6,0.5h20.2v5.9h-13.3v3.8h12v5.5h-12v4h13.5v5.9h-20.3V0.5z"/>
			<rect x="15.9" y="0.5" class="st0" width="6" height="6.1"/>
			<path class="st0" d="M0,0.5v6.1h7.5v19h6.9v-19c0-3.4-2.7-6.1-6.1-6.1H0z"/>
		</g>
		<g>
			<path class="st0" d="M44.8,33.6h4.1c3.8,0,6,2.2,6,5.3v0c0,3.1-2.2,5.3-6,5.3h-4.1V33.6z M47.7,36.2v5.4h1.2c1.8,0,2.9-1,2.9-2.7
				v0c0-1.7-1.2-2.7-2.9-2.7H47.7z"/>
			<path class="st0" d="M60.7,33.6h8.5v2.5h-5.6v1.6h5.1V40h-5.1v1.7h5.7v2.5h-8.6V33.6z"/>
			<path class="st0" d="M75.4,42.6l1.6-2c1.1,0.8,2.2,1.3,3.4,1.3c0.8,0,1.2-0.3,1.2-0.7v0c0-0.5-0.3-0.7-1.8-1
				c-2.3-0.5-4-1.2-4-3.3v0c0-2,1.6-3.4,4.1-3.4c1.8,0,3.2,0.5,4.4,1.4l-1.5,2.1c-1-0.7-2-1-3-1c-0.7,0-1.1,0.3-1.1,0.7v0
				c0,0.5,0.4,0.7,1.9,1c2.4,0.5,3.9,1.3,3.9,3.3v0c0,2.2-1.7,3.5-4.3,3.5C78.5,44.4,76.7,43.8,75.4,42.6z"/>
			<path class="st0" d="M90.8,33.6h2.9v10.6h-2.9V33.6z"/>
			<path class="st0" d="M99.3,38.9L99.3,38.9c0-3.1,2.4-5.6,5.7-5.6c1.9,0,3.2,0.6,4.3,1.5l-1.7,2.1c-0.8-0.6-1.5-1-2.6-1
				c-1.5,0-2.7,1.3-2.7,2.9v0c0,1.7,1.2,3,2.9,3c0.7,0,1.3-0.2,1.7-0.4v-1.3h-2.1V38h4.9v4.8c-1.1,0.9-2.7,1.7-4.6,1.7
				C101.7,44.4,99.3,42.2,99.3,38.9z"/>
			<path class="st0" d="M115.9,33.6h2.7l4.4,5.6v-5.6h2.9v10.6h-2.6l-4.6-5.8v5.8h-2.9V33.6z"/>
		</g>
	</g>
</g>
</svg>
